<?xml version="1.0" encoding="UTF-8"?>
<svg width="31px" height="31px" viewBox="0 0 31 31" version="1.1" xmlns="http://www.w3.org/2000/svg" xmlns:xlink="http://www.w3.org/1999/xlink">
    <!-- Generator: Sketch 63.1 (92452) - https://sketch.com -->
    <title>color-lens copy</title>
    <desc>Created with Sketch.</desc>
    <g id="Page-1" stroke="none" stroke-width="1" fill="none" fill-rule="evenodd">
        <g id="color-lens-copy" transform="translate(-5.000000, -5.000000)" fill-rule="nonzero">
            <rect id="Rectangle" fill="#000000" opacity="0" x="0" y="0" width="40" height="40"></rect>
            <path d="M20.4545455,5.45454545 C12.1712121,5.45454545 5.45454545,12.1712121 5.45454545,20.4545455 C5.45454545,28.7378788 12.1712121,35.4545455 20.4545455,35.4545455 C21.8378788,35.4545455 22.9545455,34.3378788 22.9545455,32.9545455 C22.9545455,32.3045455 22.7128788,31.7212121 22.3045455,31.2795455 C21.9128788,30.8378788 21.6795455,30.2628788 21.6795455,29.6212121 C21.6795455,28.2378788 22.7962121,27.1212121 24.1795455,27.1212121 L27.1212121,27.1212121 C31.7212121,27.1212121 35.4545455,23.3878788 35.4545455,18.7878788 C35.4545455,11.4212121 28.7378788,5.45454545 20.4545455,5.45454545 Z M11.2878788,20.4545455 C9.90454545,20.4545455 8.78787877,19.3378788 8.78787877,17.9545455 C8.78787877,16.5712121 9.90454545,15.4545455 11.2878788,15.4545455 C12.6712121,15.4545455 13.7878788,16.5712121 13.7878788,17.9545455 C13.7878788,19.3378788 12.6712121,20.4545455 11.2878788,20.4545455 Z M16.2878788,13.7878788 C14.9045455,13.7878788 13.7878788,12.6712121 13.7878788,11.2878788 C13.7878788,9.90454545 14.9045455,8.78787877 16.2878788,8.78787877 C17.6712121,8.78787877 18.7878788,9.90454545 18.7878788,11.2878788 C18.7878788,12.6712121 17.6712121,13.7878788 16.2878788,13.7878788 Z M24.6212121,13.7878788 C23.2378788,13.7878788 22.1212121,12.6712121 22.1212121,11.2878788 C22.1212121,9.90454545 23.2378788,8.78787877 24.6212121,8.78787877 C26.0045455,8.78787877 27.1212121,9.90454545 27.1212121,11.2878788 C27.1212121,12.6712121 26.0045455,13.7878788 24.6212121,13.7878788 Z M29.6212121,20.4545455 C28.2378788,20.4545455 27.1212121,19.3378788 27.1212121,17.9545455 C27.1212121,16.5712121 28.2378788,15.4545455 29.6212121,15.4545455 C31.0045455,15.4545455 32.1212121,16.5712121 32.1212121,17.9545455 C32.1212121,19.3378788 31.0045455,20.4545455 29.6212121,20.4545455 Z" id="Shape" fill="#B7B1B7"></path>
        </g>
    </g>
</svg>