<?xml version="1.0" encoding="utf-8"?>
<!-- Generator: Adobe Illustrator 27.1.1, SVG Export Plug-In . SVG Version: 6.00 Build 0)  -->
<svg version="1.1" id="Layer_1" xmlns="http://www.w3.org/2000/svg" xmlns:xlink="http://www.w3.org/1999/xlink" x="0px" y="0px"
	 viewBox="0 0 50 50" style="enable-background:new 0 0 50 50;" xml:space="preserve">
<style type="text/css">
	.st0{fill:#4276B9;}
	.st1{fill:#FFFFFF;}
</style>
<g>
	<g>
		<path class="st0" d="M37.5,49.5H2.4c-0.5,0-0.9-0.4-0.9-0.9V1.3c0-0.5,0.4-0.9,0.9-0.9h24.2c0.5,0,0.8,0.4,0.9,0.8l0.1,10h10
			c0.5,0,0.9,0.4,0.9,0.9v36.5C38.4,49.1,38,49.5,37.5,49.5z M3.2,47.8h33.4V13h-10c-0.5,0-0.8-0.4-0.9-0.8l-0.1-10H3.2V47.8z"/>
		<path class="st0" d="M37.5,13c-0.2,0-0.4-0.1-0.6-0.2L26,2c-0.3-0.3-0.3-0.9,0-1.2c0.3-0.3,0.9-0.3,1.2,0l10.9,10.7
			c0.3,0.3,0.3,0.9,0,1.2C37.9,12.9,37.7,13,37.5,13z"/>
	</g>
	<g>
		<g>
			<polygon class="st1" points="26,44.6 26.8,35.8 41.8,13 48.3,17.3 33.4,40.5 			"/>
			<path class="st0" d="M26,45.4c-0.2,0-0.3,0-0.5-0.1c-0.3-0.2-0.4-0.5-0.4-0.8l0.7-8.8c0-0.1,0.1-0.3,0.1-0.4l15-22.8
				c0.3-0.4,0.8-0.5,1.2-0.2l6.5,4.3c0.4,0.3,0.5,0.8,0.3,1.2L34.1,41c-0.1,0.1-0.2,0.2-0.3,0.3l-7.4,4.1
				C26.3,45.4,26.2,45.4,26,45.4z M27.6,36.1l-0.6,7l5.8-3.2l14.3-22.3L42,14.2L27.6,36.1z"/>
		</g>
		<path class="st0" d="M33.4,41.4c-0.2,0-0.3-0.1-0.5-0.2l-6.6-4.7c-0.4-0.3-0.5-0.8-0.2-1.2c0.3-0.4,0.8-0.5,1.2-0.2l6.6,4.7
			c0.4,0.3,0.5,0.8,0.2,1.2C33.9,41.3,33.7,41.4,33.4,41.4z"/>
		<path class="st0" d="M44.6,23.1c-0.2,0-0.3,0-0.5-0.1L38,18.8c-0.4-0.3-0.5-0.8-0.2-1.2c0.3-0.4,0.8-0.5,1.2-0.2l6.2,4.1
			c0.4,0.3,0.5,0.8,0.2,1.2C45.2,22.9,44.9,23.1,44.6,23.1z"/>
	</g>
	<path class="st0" d="M28.2,18.7H6.6c-0.5,0-0.9-0.4-0.9-0.9c0-0.5,0.4-0.9,0.9-0.9h21.6c0.5,0,0.9,0.4,0.9,0.9
		C29.1,18.3,28.7,18.7,28.2,18.7z"/>
	<path class="st0" d="M28.2,23.5H6.6c-0.5,0-0.9-0.4-0.9-0.9s0.4-0.9,0.9-0.9h21.6c0.5,0,0.9,0.4,0.9,0.9S28.7,23.5,28.2,23.5z"/>
	<path class="st0" d="M28.2,28.3H6.6c-0.5,0-0.9-0.4-0.9-0.9s0.4-0.9,0.9-0.9h21.6c0.5,0,0.9,0.4,0.9,0.9S28.7,28.3,28.2,28.3z"/>
</g>
</svg>
