<?xml version="1.0" encoding="UTF-8"?>
<svg width="40px" height="40px" viewBox="0 0 40 40" version="1.1" xmlns="http://www.w3.org/2000/svg" xmlns:xlink="http://www.w3.org/1999/xlink">
    <!-- Generator: Sketch 63.1 (92452) - https://sketch.com -->
    <title>icon_affiliate</title>
    <desc>Created with Sketch.</desc>
    <g id="icon_affiliate" stroke="none" stroke-width="1" fill="none" fill-rule="evenodd">
        <rect id="Rectangle" x="-28" y="-16" width="90" height="90"></rect>
        <g id="affiliate">
            <rect id="Rectangle-Copy-49" x="0" y="0" width="40" height="40"></rect>
            <g id="Untitled-9_affiliate" transform="translate(4.100000, 6.100000)" fill="#824179" fill-rule="nonzero">
                <path d="M25.8,16.1 C24.9846706,16.0995412 24.1785214,16.2720732 23.4348,16.6062 L19.5212,10.3445 C21.3927862,8.7790448 22.0844941,6.20964046 21.2517701,3.91615938 C20.419046,1.6226783 18.2399764,0.0956045685 15.8,0.0956045685 C13.3600236,0.0956045685 11.180954,1.6226783 10.3482299,3.91615938 C9.51550588,6.20964046 10.2072138,8.7790448 12.0788,10.3445 L8.1652,16.6062 C5.88710246,15.5884315 3.21336595,16.1419332 1.52656884,17.9804915 C-0.160228262,19.8190498 -0.481907473,22.5304615 0.727870233,24.7126665 C1.93764794,26.8948716 4.40765142,28.0586215 6.86065183,27.6021458 C9.31365224,27.1456702 11.199689,25.1713104 11.5435,22.7 L20.0565,22.7 C20.4840046,25.7697831 23.2494839,27.9610043 26.335696,27.6753066 C29.4219081,27.3896089 31.7381462,24.7279615 31.5948615,21.6318675 C31.4515767,18.5357736 28.8994077,16.0994321 25.8,16.1 Z M11.6,5.9 C11.6,3.58040405 13.4804041,1.7 15.8,1.7 C18.1195959,1.7 20,3.58040405 20,5.9 C20,8.21959595 18.1195959,10.1 15.8,10.1 C13.4814778,10.0974098 11.6025902,8.21852221 11.6,5.9 L11.6,5.9 Z M13.4348,11.1938 C14.9392628,11.8686077 16.6603372,11.8686077 18.1648,11.1938 L22.0784,17.4555 C20.9759392,18.377678 20.2553641,19.6765236 20.0565,21.1 L11.5435,21.1 C11.3445321,19.6764656 10.6238098,18.3776117 9.5212,17.4555 L13.4348,11.1938 Z M5.8,26.1 C3.48040405,26.1 1.6,24.2195959 1.6,21.9 C1.6,19.5804041 3.48040405,17.7 5.8,17.7 C8.11959595,17.7 10,19.5804041 10,21.9 C9.99740981,24.2185222 8.11852221,26.0974098 5.8,26.1 Z M25.8,26.1 C23.4804041,26.1 21.6,24.2195959 21.6,21.9 C21.6,19.5804041 23.4804041,17.7 25.8,17.7 C28.1195959,17.7 30,19.5804041 30,21.9 C29.9974098,24.2185222 28.1185222,26.0974098 25.8,26.1 Z" id="Shape"></path>
            </g>
        </g>
    </g>
</svg>