<?xml version="1.0" encoding="UTF-8"?>
<svg width="40px" height="40px" viewBox="0 0 40 40" version="1.1" xmlns="http://www.w3.org/2000/svg" xmlns:xlink="http://www.w3.org/1999/xlink">
    <!-- Generator: Sketch 63.1 (92452) - https://sketch.com -->
    <title>icon_blog</title>
    <desc>Created with Sketch.</desc>
    <g id="icon_blog" stroke="none" stroke-width="1" fill="none" fill-rule="evenodd">
        <rect id="Rectangle" x="-28" y="-16" width="90" height="90"></rect>
        <g id="blog">
            <rect id="Rectangle-Copy-48" x="0" y="0" width="40" height="40"></rect>
            <g id="Untitled-9_blog" transform="translate(3.200000, 6.400000)" fill="#824179" fill-rule="nonzero">
                <path d="M1.4944,16.94 L19.3473,16.94 C20.1201559,16.9391733 20.7464733,16.3128559 20.7473,15.54 L20.7473,1.498 C20.7464183,0.725166868 20.1201331,0.0988817272 19.3473,0.098 L1.4944,0.098 C0.721566868,0.0988817272 0.0952817272,0.725166868 0.0944,1.498 L0.0944,15.54 C0.095226732,16.3128559 0.721544053,16.9391733 1.4944,16.94 Z M1.6944,1.6976 L19.1473,1.6976 L19.1473,15.34 L1.6944,15.34 L1.6944,1.6976 Z" id="Shape"></path>
                <path d="M14.0763,6.19 C13.9301096,5.95609367 13.6737329,5.81399698 13.3979,5.81399698 C13.1220671,5.81399698 12.8656904,5.95609367 12.7195,6.19 L11.6117,7.9625 L9.313,4.2846 C9.16680958,4.05069367 8.91043294,3.90859698 8.6346,3.90859698 C8.35876706,3.90859698 8.10239042,4.05069367 7.9562,4.2846 L3.193,11.9058 C3.03886504,12.1524153 3.03070348,12.4632512 3.17168434,12.7176152 C3.3126652,12.9719793 3.58057931,13.1298 3.8714,13.1298 L16.97,13.1298 C17.2608207,13.1298 17.5287348,12.9719793 17.6697157,12.7176152 C17.8106965,12.4632512 17.802535,12.1524153 17.6484,11.9058 L14.0763,6.19 Z M5.3148,11.53 L8.6348,6.2183 L10.9335,9.8961 C11.0796904,10.1300063 11.3360671,10.272103 11.6119,10.272103 C11.8877329,10.272103 12.1441096,10.1300063 12.2903,9.8961 L13.3981,8.1235 L15.5271,11.53 L5.3148,11.53 Z" id="Shape"></path>
                <path d="M23.0984,1.698 L32.7056,1.698 C33.1474278,1.698 33.5056,1.3398278 33.5056,0.898 C33.5056,0.4561722 33.1474278,0.098 32.7056,0.098 L23.0984,0.098 C22.6565722,0.098 22.2984,0.4561722 22.2984,0.898 C22.2984,1.3398278 22.6565722,1.698 23.0984,1.698 Z" id="Path"></path>
                <path d="M32.7056,5.1788 L23.0984,5.1788 C22.6565722,5.1788 22.2984,5.5369722 22.2984,5.9788 C22.2984,6.4206278 22.6565722,6.7788 23.0984,6.7788 L32.7056,6.7788 C33.1474278,6.7788 33.5056,6.4206278 33.5056,5.9788 C33.5056,5.5369722 33.1474278,5.1788 32.7056,5.1788 L32.7056,5.1788 Z" id="Path"></path>
                <path d="M32.7056,10.26 L23.0984,10.26 C22.6565722,10.26 22.2984,10.6181722 22.2984,11.06 C22.2984,11.5018278 22.6565722,11.86 23.0984,11.86 L32.7056,11.86 C33.1474278,11.86 33.5056,11.5018278 33.5056,11.06 C33.5056,10.6181722 33.1474278,10.26 32.7056,10.26 Z" id="Path"></path>
                <path d="M32.7056,15.34 L23.0984,15.34 C22.6565722,15.34 22.2984,15.6981722 22.2984,16.14 C22.2984,16.5818278 22.6565722,16.94 23.0984,16.94 L32.7056,16.94 C33.1474278,16.94 33.5056,16.5818278 33.5056,16.14 C33.5056,15.6981722 33.1474278,15.34 32.7056,15.34 Z" id="Path"></path>
                <path d="M32.7056,20.4212 L0.8944,20.4212 C0.4525722,20.4212 0.0944,20.7793722 0.0944,21.2212 C0.0944,21.6630278 0.4525722,22.0212 0.8944,22.0212 L32.7056,22.0212 C33.1474278,22.0212 33.5056,21.6630278 33.5056,21.2212 C33.5056,20.7793722 33.1474278,20.4212 32.7056,20.4212 Z" id="Path"></path>
                <path d="M32.7056,25.502 L0.8944,25.502 C0.4525722,25.502 0.0944,25.8601722 0.0944,26.302 C0.0944,26.7438278 0.4525722,27.102 0.8944,27.102 L32.7056,27.102 C33.1474278,27.102 33.5056,26.7438278 33.5056,26.302 C33.5056,25.8601722 33.1474278,25.502 32.7056,25.502 Z" id="Path"></path>
            </g>
        </g>
    </g>
</svg>