<?xml version="1.0" encoding="UTF-8"?>
<svg width="40px" height="40px" viewBox="0 0 40 40" version="1.1" xmlns="http://www.w3.org/2000/svg" xmlns:xlink="http://www.w3.org/1999/xlink">
    <!-- Generator: Sketch 63.1 (92452) - https://sketch.com -->
    <title>icon_speechmaker</title>
    <desc>Created with Sketch.</desc>
    <g id="icon_speechmaker" stroke="none" stroke-width="1" fill="none" fill-rule="evenodd">
        <rect id="Rectangle" x="-28" y="-16" width="90" height="90"></rect>
        <g id="speechmaker">
            <rect id="Rectangle-Copy-43" x="0" y="0" width="40" height="40"></rect>
            <g id="header-icon-03" transform="translate(10.200000, 4.200000)" fill="#8E47BB" fill-rule="nonzero">
                <path d="M9.8,18.6 C13.0017438,18.5963628 15.5963628,16.0017438 15.6,12.8 L15.6,5.8 C15.6,2.59674845 13.0032515,0 9.8,0 C6.59674845,0 4,2.59674845 4,5.8 L4,12.8 C4.00363716,16.0017438 6.59825622,18.5963628 9.8,18.6 Z M5.6,5.8 C5.6,3.48040405 7.48040405,1.6 9.8,1.6 C12.1195959,1.6 14,3.48040405 14,5.8 L14,12.8 C14,15.1195959 12.1195959,17 9.8,17 C7.48040405,17 5.6,15.1195959 5.6,12.8 L5.6,5.8 Z" id="Shape"></path>
                <path d="M18.8,26 L10.6,26 L10.6,22.5672 C15.682232,22.14474 19.593778,17.8997565 19.6,12.8 C19.6,12.3581722 19.2418278,12 18.8,12 C18.3581722,12 18,12.3581722 18,12.8 C18,17.3287349 14.3287349,21 9.8,21 C5.27126505,21 1.6,17.3287349 1.6,12.8 C1.6,12.3581722 1.2418278,12 0.8,12 C0.3581722,12 0,12.3581722 0,12.8 C0.00622202622,17.8997565 3.91776796,22.14474 9,22.5672 L9,26 L0.8,26 C0.3581722,26 0,26.3581722 0,26.8 L0,30.8 C0,31.2418278 0.3581722,31.6 0.8,31.6 L18.8,31.6 C19.2418278,31.6 19.6,31.2418278 19.6,30.8 L19.6,26.8 C19.6,26.3581722 19.2418278,26 18.8,26 Z M18,30 L1.6,30 L1.6,27.6 L18,27.6 L18,30 Z" id="Shape"></path>
            </g>
        </g>
    </g>
</svg>