<?xml version="1.0" encoding="UTF-8"?>
<svg width="40px" height="40px" viewBox="0 0 40 40" version="1.1" xmlns="http://www.w3.org/2000/svg" xmlns:xlink="http://www.w3.org/1999/xlink">
    <!-- Generator: Sketch 63.1 (92452) - https://sketch.com -->
    <title>icon_fontpairer</title>
    <desc>Created with Sketch.</desc>
    <g id="icon_fontpairer" stroke="none" stroke-width="1" fill="none" fill-rule="evenodd">
        <rect id="Rectangle" x="-28" y="-16" width="90" height="90"></rect>
        <g id="font">
            <rect id="Rectangle-Copy-40" x="0" y="0" width="40" height="40"></rect>
            <g id="Untitled-9_Font" transform="translate(4.800000, 6.200000)" fill="#824179" fill-rule="nonzero">
                <path d="M29.5372,27.6000003 L24.1885,27.6000003 C23.8731034,27.6000003 23.5872212,27.4144338 23.4585,27.1265 L21.4785,22.6972 L8.9185,22.6972 L6.9031,27.1311 C6.77317597,27.4168731 6.48812109,27.6000003 6.1742,27.6000003 L0.8628,27.6000003 C0.591499383,27.6000003 0.3386756,27.4625427 0.191219172,27.2348134 C0.0437627432,27.0070841 0.0217702214,26.7201407 0.1328,26.4726 L11.7957,0.4726 C11.9246896,0.185017964 12.2105148,-5.68434189e-15 12.5257,-5.68434189e-15 L17.8742,-5.68434189e-15 C18.1893852,-5.68434189e-15 18.4752104,0.185017964 18.6042,0.4726 L30.2671,26.4726 C30.3781298,26.7201407 30.3561373,27.0070841 30.2086808,27.2348134 C30.0612244,27.4625427 29.8084006,27.6000003 29.5371,27.6000003 L29.5372,27.6000003 Z M24.7072,26 L28.3015,26 L17.3563,1.6 L13.0436,1.6 L2.0985,26 L5.6591,26 L7.6745,21.5661 C7.80433417,21.2805248 8.08909618,21.0971871 8.4028,21.0972 L21.9971,21.0972 C22.3124966,21.0973344 22.5983788,21.2827662 22.7271,21.5707 L24.7072,26 Z M20.0286,18.1287 L10.3714,18.1287 C10.1015303,18.1287 9.84983429,17.9925959 9.70200816,17.7668148 C9.55418202,17.5410337 9.53015211,17.2559397 9.6381,17.0086 L14.4667,5.94 C14.5938909,5.64835053 14.8818225,5.45979855 15.2,5.45979855 C15.5181775,5.45979855 15.8061091,5.64835053 15.9333,5.94 L20.7618,17.0087 C20.8697408,17.2560234 20.8457215,17.5410975 20.6979192,17.766873 C20.5501169,17.9926485 20.298452,18.1287 20.0286,18.1287 L20.0286,18.1287 Z M11.5932,16.5286 L18.8068,16.5286 L15.2,8.2607 L11.5932,16.5286 Z" id="Shape"></path>
            </g>
        </g>
    </g>
</svg>