<?xml version="1.0" encoding="UTF-8"?>
<svg width="40px" height="40px" viewBox="0 0 40 40" version="1.1" xmlns="http://www.w3.org/2000/svg" xmlns:xlink="http://www.w3.org/1999/xlink">
    <!-- Generator: Sketch 63.1 (92452) - https://sketch.com -->
    <title>icon_graphicmaker</title>
    <desc>Created with Sketch.</desc>
    <g id="icon_graphicmaker" stroke="none" stroke-width="1" fill="none" fill-rule="evenodd">
        <rect id="Rectangle" x="-28" y="-16" width="90" height="90"></rect>
        <g id="graphic">
            <rect id="Rectangle-Copy-44" x="0" y="0" width="40" height="40"></rect>
            <g id="Untitled-9_graphic" transform="translate(4.100000, 6.400000)" fill="#824179" fill-rule="nonzero">
                <path d="M30.9244,5.5167 L26.291,5.5167 L26.291,0.8833 C26.291,0.4414722 25.9328278,0.0833 25.491,0.0833 L0.8756,0.0833 C0.4337722,0.0833 0.0756,0.4414722 0.0756,0.8833 L0.0756,20.8833 C0.0756,21.3251278 0.4337722,21.6833 0.8756,21.6833 L5.509,21.6833 L5.509,26.3167 C5.509,26.7585278 5.8671722,27.1167 6.309,27.1167 L30.9244,27.1167 C31.3662278,27.1167 31.7244,26.7585278 31.7244,26.3167 L31.7244,6.3167 C31.7244,5.8748722 31.3662278,5.5167 30.9244,5.5167 Z M1.6756,1.6833 L24.691,1.6833 L24.691,20.0833 L1.6756,20.0833 L1.6756,1.6833 Z M30.1244,25.5167 L7.109,25.5167 L7.109,21.6833 L25.491,21.6833 C25.9328278,21.6833 26.291,21.3251278 26.291,20.8833 L26.291,7.1167 L30.1244,7.1167 L30.1244,25.5167 Z" id="Shape"></path>
                <path d="M20.758,16.4878 C20.8989796,16.2334427 20.8908241,15.9226144 20.7367,15.676 L16.9867,9.676 C16.8405194,9.44204797 16.5841165,9.29991697 16.30825,9.29991697 C16.0323835,9.29991697 15.7759806,9.44204797 15.6298,9.676 L14.4333,11.5906 L11.9867,7.676 C11.8405194,7.44204797 11.5841165,7.29991697 11.30825,7.29991697 C11.0323835,7.29991697 10.7759806,7.44204797 10.6298,7.676 L5.6298,15.676 C5.47565554,15.9226304 5.46750314,16.2334881 5.60850858,16.4878589 C5.74951402,16.7422298 6.01746141,16.9 6.3083,16.9 L20.0583,16.9 C20.3491183,16.9 20.6170258,16.742165 20.758,16.4878 Z M7.7517,15.3 L11.3083,9.61 L13.7548,13.5246 C13.9009806,13.758552 14.1573835,13.900683 14.43325,13.900683 C14.7091165,13.900683 14.9655194,13.758552 15.1117,13.5246 L16.3083,11.61 L18.6148,15.3 L7.7517,15.3 Z" id="Shape"></path>
                <path d="M18.3371,8.35 C19.6073549,8.35 20.6371,7.32025492 20.6371,6.05 C20.6371,4.77974508 19.6073549,3.75 18.3371,3.75 C17.0668451,3.75 16.0371,4.77974508 16.0371,6.05 C16.0385328,7.31966095 17.0674391,8.34856716 18.3371,8.35 L18.3371,8.35 Z M18.3371,5.35 C18.7236993,5.35 19.0371,5.66340068 19.0371,6.05 C19.0371,6.43659932 18.7236993,6.75 18.3371,6.75 C17.9505007,6.75 17.6371,6.43659932 17.6371,6.05 C17.6375958,5.66360624 17.9507062,5.35049584 18.3371,5.35 Z" id="Shape"></path>
            </g>
        </g>
    </g>
</svg>