<?xml version="1.0" encoding="UTF-8"?>
<svg width="40px" height="40px" viewBox="0 0 40 40" version="1.1" xmlns="http://www.w3.org/2000/svg" xmlns:xlink="http://www.w3.org/1999/xlink">
    <!-- Generator: Sketch 63.1 (92452) - https://sketch.com -->
    <title>icon_colormatcher</title>
    <desc>Created with Sketch.</desc>
    <g id="icon_colormatcher" stroke="none" stroke-width="1" fill="none" fill-rule="evenodd">
        <rect id="Rectangle" x="-28" y="-16" width="90" height="90"></rect>
        <g id="color">
            <rect id="Rectangle-Copy-46" x="0" y="0" width="40" height="40"></rect>
            <g id="Untitled-9_color" transform="translate(4.200000, 4.200000)" fill="#824179" fill-rule="nonzero">
                <path d="M6.6333,10 C4.8446,10 3.3333,11.5112 3.3333,13.3 C3.3333,15.0888 4.8446,16.6 6.6333,16.6 C8.422,16.6 9.9333,15.0888 9.9333,13.3 C9.9333,11.5112 8.4221,10 6.6333,10 Z M6.6333,15 C5.7433,15 4.9333,14.19 4.9333,13.3 C4.9333,12.41 5.7433,11.6 6.6333,11.6 C7.5233,11.6 8.3333,12.41 8.3333,13.3 C8.3333,14.19 7.523,15 6.6333,15 Z" id="Shape"></path>
                <path d="M26.9576,4.12 C23.98,1.4631 20.0178,0 15.8,0 C7.07390095,0 0,7.07390095 0,15.8 C0,24.526099 7.07390095,31.6 15.8,31.6 C17.5888,31.6 19.1,30.0888 19.1,28.3 C19.1,27.4087 18.84,26.7351 18.2579,26.1277 C17.9522,25.667 17.7667,25.3535 17.7667,24.9666 C17.7667,24.0766 18.5767,23.2666 19.4667,23.2666 L22.4667,23.2666 C27.5881,23.2666 31.6,19.2548 31.6,14.1333 C31.6,10.3473 29.9513,6.791 26.9576,4.12 Z M22.4667,21.6666 L19.4667,21.6666 C17.6779,21.6666 16.1667,23.1778 16.1667,24.9666 C16.1667,25.8755 16.6108,26.5418 16.9677,27.0771 C16.9969381,27.120927 17.0304341,27.1617586 17.0677,27.199 C17.3909,27.5223 17.5,27.8 17.5,28.3 C17.5,29.19 16.69,30 15.8,30 C7.95755655,30 1.6,23.6424434 1.6,15.8 C1.6,7.95755655 7.95755655,1.6 15.8,1.6 C23.63,1.6 30,7.2225 30,14.1333 C30,18.3576 26.691,21.6666 22.4667,21.6666 Z" id="Shape"></path>
                <path d="M24.9667,10 C23.1779,10 21.6667,11.5112 21.6667,13.3 C21.6667,15.0888 23.1779,16.6 24.9667,16.6 C26.7555,16.6 28.2667,15.0888 28.2667,13.3 C28.2667,11.5112 26.7554,10 24.9667,10 Z M24.9667,15 C24.0767,15 23.2667,14.19 23.2667,13.3 C23.2667,12.41 24.0767,11.6 24.9667,11.6 C25.8567,11.6 26.6667,12.41 26.6667,13.3 C26.6667,14.19 25.8564,15 24.9667,15 Z" id="Shape"></path>
                <path d="M23.2667,6.6333 C23.2667,4.8445 21.7554,3.3333 19.9667,3.3333 C18.178,3.3333 16.6667,4.8445 16.6667,6.6333 C16.6667,8.4221 18.1779,9.9333 19.9667,9.9333 C21.7555,9.9333 23.2667,8.4221 23.2667,6.6333 Z M19.9667,8.3333 C19.0767,8.3333 18.2667,7.5233 18.2667,6.6333 C18.2667,5.7433 19.0767,4.9333 19.9667,4.9333 C20.8567,4.9333 21.6667,5.7433 21.6667,6.6333 C21.6667,7.5233 20.8564,8.3333 19.9667,8.3333 L19.9667,8.3333 Z" id="Shape"></path>
                <path d="M11.6333,3.3333 C9.8446,3.3333 8.3333,4.8445 8.3333,6.6333 C8.3333,8.4221 9.8446,9.9333 11.6333,9.9333 C13.422,9.9333 14.9333,8.4221 14.9333,6.6333 C14.9333,4.8445 13.4221,3.3333 11.6333,3.3333 Z M11.6333,8.3333 C10.7433,8.3333 9.9333,7.5233 9.9333,6.6333 C9.9333,5.7433 10.7433,4.9333 11.6333,4.9333 C12.5233,4.9333 13.3333,5.7433 13.3333,6.6333 C13.3333,7.5233 12.523,8.3333 11.6333,8.3333 Z" id="Shape"></path>
            </g>
        </g>
    </g>
</svg>