<?xml version="1.0" encoding="UTF-8"?>
<svg width="40px" height="40px" viewBox="0 0 40 40" version="1.1" xmlns="http://www.w3.org/2000/svg" xmlns:xlink="http://www.w3.org/1999/xlink">
    <!-- Generator: Sketch 63.1 (92452) - https://sketch.com -->
    <title>icon_calendar</title>
    <desc>Created with Sketch.</desc>
    <g id="icon_calendar" stroke="none" stroke-width="1" fill="none" fill-rule="evenodd">
        <rect id="Rectangle" x="-28" y="-16" width="90" height="90"></rect>
        <g id="calendar">
            <rect id="Rectangle-Copy-45" x="0" y="0" width="40" height="40"></rect>
            <g id="Untitled-9_calendar" transform="translate(3.200000, 4.700000)" fill="#824179" fill-rule="nonzero">
                <path d="M33.6,9.8 L33.6,3.8 C33.6,3.3581722 33.2418278,3 32.8,3 L28.6,3 L28.6,0.8 C28.6,0.3581722 28.2418278,0 27.8,0 C27.3581722,0 27,0.3581722 27,0.8 L27,3 L6.6,3 L6.6,0.8 C6.6,0.3581722 6.2418278,0 5.8,0 C5.3581722,0 5,0.3581722 5,0.8 L5,3 L0.8,3 C0.3581722,3 0,3.3581722 0,3.8 L0,29.8 C0,30.2418278 0.3581722,30.6 0.8,30.6 L32.8,30.6 C33.2418278,30.6 33.6,30.2418278 33.6,29.8 L33.6,9.8 Z M5,4.6 L5,6.8 C5,7.2418278 5.3581722,7.6 5.8,7.6 C6.2418278,7.6 6.6,7.2418278 6.6,6.8 L6.6,4.6 L27,4.6 L27,6.8 C27,7.2418278 27.3581722,7.6 27.8,7.6 C28.2418278,7.6 28.6,7.2418278 28.6,6.8 L28.6,4.6 L32,4.6 L32,9 L1.6,9 L1.6,4.6 L5,4.6 Z M1.6,29 L1.6,10.6 L32,10.6 L32,29 L1.6,29 Z" id="Shape"></path>
                <path d="M27.7606,12.9331 L23.8318,12.9331 C23.3899722,12.9331 23.0318,13.2912722 23.0318,13.7331 L23.0318,17.7331 C23.0318,18.1749278 23.3899722,18.5331 23.8318,18.5331 L27.7606,18.5331 C28.2024278,18.5331 28.5606,18.1749278 28.5606,17.7331 L28.5606,13.7331 C28.5606,13.2912722 28.2024278,12.9331 27.7606,12.9331 Z M26.9606,16.9331 L24.6318,16.9331 L24.6318,14.5331 L26.9606,14.5331 L26.9606,16.9331 Z" id="Shape"></path>
                <path d="M18.7644,12.9331 L14.8356,12.9331 C14.3937722,12.9331 14.0356,13.2912722 14.0356,13.7331 L14.0356,17.7331 C14.0356,18.1749278 14.3937722,18.5331 14.8356,18.5331 L18.7644,18.5331 C19.2062278,18.5331 19.5644,18.1749278 19.5644,17.7331 L19.5644,13.7331 C19.5644,13.2912722 19.2062278,12.9331 18.7644,12.9331 Z M17.9644,16.9331 L15.6356,16.9331 L15.6356,14.5331 L17.9644,14.5331 L17.9644,16.9331 Z" id="Shape"></path>
                <path d="M9.7682,12.9331 L5.8394,12.9331 C5.3975722,12.9331 5.0394,13.2912722 5.0394,13.7331 L5.0394,17.7331 C5.0394,18.1749278 5.3975722,18.5331 5.8394,18.5331 L9.7682,18.5331 C10.2100278,18.5331 10.5682,18.1749278 10.5682,17.7331 L10.5682,13.7331 C10.5682,13.5209268 10.4839145,13.3174437 10.3338854,13.1674146 C10.1838563,13.0173855 9.98037319,12.9331 9.7682,12.9331 Z M8.9682,16.9331 L6.6394,16.9331 L6.6394,14.5331 L8.9682,14.5331 L8.9682,16.9331 Z" id="Shape"></path>
                <path d="M27.7606,21.067 L23.8318,21.067 C23.3899722,21.067 23.0318,21.4251722 23.0318,21.867 L23.0318,25.867 C23.0318,26.3088278 23.3899722,26.667 23.8318,26.667 L27.7606,26.667 C28.2024278,26.667 28.5606,26.3088278 28.5606,25.867 L28.5606,21.867 C28.5606,21.4251722 28.2024278,21.067 27.7606,21.067 Z M26.9606,25.067 L24.6318,25.067 L24.6318,22.667 L26.9606,22.667 L26.9606,25.067 Z" id="Shape"></path>
                <path d="M18.7644,21.067 L14.8356,21.067 C14.3937722,21.067 14.0356,21.4251722 14.0356,21.867 L14.0356,25.867 C14.0356,26.3088278 14.3937722,26.667 14.8356,26.667 L18.7644,26.667 C19.2062278,26.667 19.5644,26.3088278 19.5644,25.867 L19.5644,21.867 C19.5644,21.4251722 19.2062278,21.067 18.7644,21.067 Z M17.9644,25.067 L15.6356,25.067 L15.6356,22.667 L17.9644,22.667 L17.9644,25.067 Z" id="Shape"></path>
                <path d="M9.7682,21.067 L5.8394,21.067 C5.3975722,21.067 5.0394,21.4251722 5.0394,21.867 L5.0394,25.867 C5.0394,26.3088278 5.3975722,26.667 5.8394,26.667 L9.7682,26.667 C10.2100278,26.667 10.5682,26.3088278 10.5682,25.867 L10.5682,21.867 C10.5682,21.6548268 10.4839145,21.4513437 10.3338854,21.3013146 C10.1838563,21.1512855 9.98037319,21.067 9.7682,21.067 Z M8.9682,25.067 L6.6394,25.067 L6.6394,22.667 L8.9682,22.667 L8.9682,25.067 Z" id="Shape"></path>
            </g>
        </g>
    </g>
</svg>