<?xml version="1.0" encoding="UTF-8"?>
<svg width="40px" height="40px" viewBox="0 0 40 40" version="1.1" xmlns="http://www.w3.org/2000/svg" xmlns:xlink="http://www.w3.org/1999/xlink">
    <!-- Generator: Sketch 63.1 (92452) - https://sketch.com -->
    <title>icon_designmaker</title>
    <desc>Created with Sketch.</desc>
    <g id="icon_designmaker" stroke="none" stroke-width="1" fill="none" fill-rule="evenodd">
        <g id="designmaker">
            <rect id="Rectangle-Copy-42" x="0" y="0" width="40" height="40"></rect>
            <g id="header-icon-02" transform="translate(5.200000, 5.200000)" fill="#FF841F" fill-rule="nonzero">
                <path d="M28.8,0 L0.8,0 C0.3581722,0 0,0.3581722 0,0.8 L0,28.8 C0,29.2418278 0.3581722,29.6 0.8,29.6 L28.8,29.6 C29.2418278,29.6 29.6,29.2418278 29.6,28.8 L29.6,0.8 C29.6,0.3581722 29.2418278,0 28.8,0 Z M28,18 L15.6,18 L15.6,1.6 L28,1.6 L28,18 Z M14,1.6 L14,10 L1.6,10 L1.6,1.6 L14,1.6 Z M1.6,11.6 L14,11.6 L14,28 L1.6,28 L1.6,11.6 Z M15.6,28 L15.6,19.6 L28,19.6 L28,28 L15.6,28 Z" id="Shape"></path>
            </g>
        </g>
    </g>
</svg>