<?xml version="1.0" encoding="UTF-8"?>
<svg width="40px" height="40px" viewBox="0 0 40 40" version="1.1" xmlns="http://www.w3.org/2000/svg" xmlns:xlink="http://www.w3.org/1999/xlink">
    <!-- Generator: Sketch 63.1 (92452) - https://sketch.com -->
    <title>icon_agencies</title>
    <desc>Created with Sketch.</desc>
    <g id="icon_agencies" stroke="none" stroke-width="1" fill="none" fill-rule="evenodd">
        <rect id="Rectangle" x="-28" y="-16" width="90" height="90"></rect>
        <g id="agency">
            <rect id="Rectangle-Copy-47" x="0" y="0" width="40" height="40"></rect>
            <g id="Untitled-9_agency" transform="translate(1.900000, 6.200000)" fill="#824179" fill-rule="nonzero">
                <path d="M11.2927,19.153 C13.0641706,17.8396481 13.793575,15.5382298 13.1020128,13.444252 C12.4104506,11.3502741 10.4538714,9.93593529 8.24865,9.93593529 C6.04342859,9.93593529 4.08684936,11.3502741 3.39528719,13.444252 C2.70372502,15.5382298 3.43312936,17.8396481 5.2046,19.153 C2.12129191,20.3975675 0.101059006,23.3879853 0.0973,26.713 C0.0973,27.1548278 0.4554722,27.513 0.8973,27.513 C1.3391278,27.513 1.6973,27.1548278 1.6973,26.713 C1.68813173,24.3663307 2.93480301,22.1939855 4.96556393,21.0179963 C6.99632486,19.842007 9.50097514,19.842007 11.5317361,21.0179963 C13.562497,22.1939855 14.8091683,24.3663307 14.8,26.713 C14.8,27.1548278 15.1581722,27.513 15.6,27.513 C16.0418278,27.513 16.4,27.1548278 16.4,26.713 C16.3961861,23.3880021 14.375972,20.3976121 11.2927,19.153 L11.2927,19.153 Z M4.7375,15.05 C4.7375,13.629834 5.59292115,12.349486 6.90497574,11.8059933 C8.21703033,11.2625006 9.7272843,11.5628976 10.7314933,12.5671067 C11.7357024,13.5713157 12.0360994,15.0815697 11.4926067,16.3936243 C10.949114,17.7056789 9.66876603,18.5611 8.2486,18.5611 C6.31038681,18.5588957 4.73970433,16.9882132 4.7375,15.05 Z" id="Shape"></path>
                <path d="M30.9953,19.153 C32.7667312,17.839671 33.4961164,15.5382991 32.804566,13.4443651 C32.1130156,11.3504311 30.1564761,9.9361227 27.9513,9.9361227 C25.7461239,9.9361227 23.7895844,11.3504311 23.098034,13.4443651 C22.4064836,15.5382991 23.1358688,17.839671 24.9073,19.153 C21.8241607,20.3974991 19.8039626,23.3876676 19.8,26.7125 C19.8,27.1543278 20.1581722,27.5125 20.6,27.5125 C21.0418278,27.5125 21.4,27.1543278 21.4,26.7125 C21.3908317,24.3658307 22.637503,22.1934855 24.6682639,21.0174963 C26.6990249,19.841507 29.2036751,19.841507 31.2344361,21.0174963 C33.265197,22.1934855 34.5118683,24.3658307 34.5027,26.7125 C34.5027,27.1543278 34.8608722,27.5125 35.3027,27.5125 C35.7445278,27.5125 36.1027,27.1543278 36.1027,26.7125 C36.0986935,23.3876514 34.0784606,20.3974899 30.9953,19.153 L30.9953,19.153 Z M24.44,15.05 C24.44,13.629834 25.2954211,12.349486 26.6074757,11.8059933 C27.9195303,11.2625006 29.4297843,11.5628976 30.4339933,12.5671067 C31.4382024,13.5713157 31.7385994,15.0815697 31.1951067,16.3936243 C30.651614,17.7056789 29.371266,18.5611 27.9511,18.5611 C26.0128868,18.5588957 24.4422043,16.9882132 24.44,15.05 L24.44,15.05 Z" id="Shape"></path>
                <path d="M18.4943,0.0946 C18.2291,0.0851 17.9619,0.0851 17.7008,0.0946 C17.2657312,0.111420577 16.9239973,0.473082575 16.9318361,0.90840584 C16.9396748,1.34372911 17.2942077,1.6928536 17.7296,1.694 C17.7396,1.694 17.7496,1.694 17.7596,1.694 C17.9835,1.6857 18.2123,1.6856 18.4365,1.694 C18.7221338,1.7043607 18.9915978,1.56155055 19.1433873,1.31936474 C19.2951769,1.07717893 19.3062316,0.772411249 19.1723873,0.519864737 C19.038543,0.267318225 18.7801338,0.105360702 18.4945,0.095 L18.4943,0.0946 Z" id="Path"></path>
                <path d="M26.0928,6.4872 C26.2272748,6.73941164 26.4860879,6.90072338 26.771747,6.91037063 C27.057406,6.92001789 27.3265127,6.77653502 27.477697,6.53397063 C27.6288813,6.29140625 27.6391748,5.98661164 27.5047,5.7344 C27.3806,5.5016 27.246,5.2706 27.1047,5.0476 C26.9517725,4.80614205 26.6816453,4.66461157 26.3960728,4.67632173 C26.1105003,4.68803189 25.8528678,4.85120363 25.7202228,5.10437173 C25.5875779,5.35753984 25.6000725,5.66224205 25.753,5.9037 C25.8731,6.093 25.9874,6.2893 26.0928,6.4872 Z" id="Path"></path>
                <path d="M22.3188,2.7286 C22.5168,2.8331 22.7137,2.9467 22.9038,3.0659 C23.2772882,3.28903654 23.7606284,3.1727923 23.9918122,2.804231 C24.2229959,2.43566971 24.117261,1.94992222 23.7538,1.7108 C23.5302,1.5708 23.2985,1.4367 23.0652,1.3135 C22.8124167,1.18007917 22.5076562,1.1916515 22.2657187,1.34385781 C22.0237813,1.49606413 21.8814229,1.76578066 21.8922687,2.05140781 C21.9031145,2.33703496 22.0655167,2.59517917 22.3183,2.7286 L22.3188,2.7286 Z" id="Path"></path>
                <path d="M12.8681,3.19060047 C13.0184137,3.19063026 13.1656624,3.14808867 13.2928,3.0679 C13.4828,2.949 13.6792,2.8353 13.878,2.7302 C14.2637805,2.52124758 14.4092935,2.04057157 14.2041752,1.65273887 C13.9990568,1.26490616 13.5198468,1.11463591 13.13,1.3159 C12.8964,1.4395 12.665,1.5731 12.4421,1.7131 C12.1399899,1.90280844 11.9999937,2.26962283 12.0988876,2.61237609 C12.1977815,2.95512936 12.5116653,3.19098668 12.8684,3.19060047 L12.8681,3.19060047 Z" id="Path"></path>
                <path d="M9.023,6.8211 C9.41294353,7.02875701 9.89739437,6.88101763 10.1051,6.4911 C10.2105,6.2931 10.3251,6.0968 10.4446,5.9074 C10.680895,5.53405551 10.5697945,5.03984505 10.19645,4.80355002 C9.8231055,4.56725499 9.32889504,4.67835552 9.0926,5.0517 C8.9514,5.2748 8.8169,5.506 8.6926,5.7391 C8.48507219,6.1291255 8.63299263,6.61353811 9.023,6.8211 Z" id="Path"></path>
            </g>
        </g>
    </g>
</svg>