<?xml version="1.0" encoding="UTF-8"?>
<svg width="40px" height="40px" viewBox="0 0 40 40" version="1.1" xmlns="http://www.w3.org/2000/svg" xmlns:xlink="http://www.w3.org/1999/xlink">
    <!-- Generator: Sketch 63.1 (92452) - https://sketch.com -->
    <title>icon_tutorial</title>
    <desc>Created with Sketch.</desc>
    <g id="icon_tutorial" stroke="none" stroke-width="1" fill="none" fill-rule="evenodd">
        <rect id="Rectangle" x="-28" y="-16" width="90" height="90"></rect>
        <g id="tutorial">
            <rect id="Rectangle" x="0" y="0" width="40" height="40"></rect>
            <g id="Untitled-9_tutorial" transform="translate(1.200000, 7.500000)" fill="#824179" fill-rule="nonzero">
                <path d="M36.8,19.2 L34.1,19.2 L34.1,2.8625 C34.0982915,1.31681092 32.8456891,0.0642084629 31.3,0.0625 L6.3,0.0625 C4.75431092,0.0642084629 3.50170846,1.31681092 3.5,2.8625 L3.5,19.2 L0.8,19.2 C0.3581722,19.2 0,19.5581722 0,20 L0,22.1375 C0.00170846292,23.6831891 1.25431092,24.9357915 2.8,24.9375 L34.8,24.9375 C36.3456891,24.9357915 37.5982915,23.6831891 37.6,22.1375 L37.6,20 C37.6,19.5581722 37.2418278,19.2 36.8,19.2 Z M5.1,5.6625 L32.5,5.6625 L32.5,19.2 L5.1,19.2 L5.1,5.6625 Z M6.3,1.6625 L31.3,1.6625 C31.9624447,1.66321648 32.4992835,2.2000553 32.5,2.8625 L32.5,4.0625 L5.1,4.0625 L5.1,2.8625 C5.10071648,2.2000553 5.6375553,1.66321648 6.3,1.6625 L6.3,1.6625 Z M36,22.1375 C35.9992835,22.7999447 35.4624447,23.3367835 34.8,23.3375 L2.8,23.3375 C2.1375553,23.3367835 1.60071648,22.7999447 1.6,22.1375 L1.6,20.8 L36,20.8 L36,22.1375 Z" id="Shape"></path>
                <path d="M22.1328,11.4653 L17.3328,8.4653 C17.0861847,8.31116504 16.7753488,8.30300348 16.5209848,8.44398434 C16.2666207,8.5849652 16.1088,8.85287931 16.1088,9.1437 L16.1088,15.1437 C16.1088,15.4345207 16.2666207,15.7024348 16.5209848,15.8434157 C16.7753488,15.9843965 17.0861847,15.976235 17.3328,15.8221 L22.1328,12.8221 C22.3667063,12.6759096 22.508803,12.4195329 22.508803,12.1437 C22.508803,11.8678671 22.3667063,11.6114904 22.1328,11.4653 L22.1328,11.4653 Z M17.7088,13.7 L17.7088,10.5871 L20.1994,12.1437 L17.7088,13.7 Z" id="Shape"></path>
            </g>
        </g>
    </g>
</svg>