<?xml version="1.0" encoding="UTF-8"?>
<svg width="40px" height="40px" viewBox="0 0 40 40" version="1.1" xmlns="http://www.w3.org/2000/svg" xmlns:xlink="http://www.w3.org/1999/xlink">
    <!-- Generator: Sketch 63.1 (92452) - https://sketch.com -->
    <title>icon_logomaker</title>
    <desc>Created with Sketch.</desc>
    <g id="icon_logomaker" stroke="none" stroke-width="1" fill="none" fill-rule="evenodd">
        <g id="logomaker">
            <rect id="Rectangle" x="0" y="0" width="40" height="40"></rect>
            <g id="header-icon-04" transform="translate(3.200000, 3.100000)" fill="#DD2F72" fill-rule="nonzero">
                <path d="M30.936,25.8692 C32.6787824,23.1657311 33.6038354,20.0165229 33.6000119,16.8 C33.6000119,7.5364 26.0636,0 16.8,0 C7.5364,0 -8.13972795e-06,7.5364 -8.13972795e-06,16.8 C-0.00373481148,20.5862458 1.27788532,24.2616268 3.6351,27.2246 C3.67245293,27.2867092 3.71814508,27.3434038 3.7709,27.3931 C5.5286706,29.5529769 7.79338867,31.2445417 10.3633,32.3171 C10.4036031,32.3377547 10.4455872,32.3549498 10.4888,32.3685 C17.9108465,35.3797668 26.426441,32.727965 30.8266,26.0352 C30.8698622,25.9846572 30.9066156,25.9288888 30.936,25.8692 Z M16.8,1.6 C25.1813,1.6 32.0000098,8.4187 32.0000098,16.8 C32.0028329,19.2935829 31.3883216,21.7490861 30.2113,23.9474 L22.9843,11.9023 C22.8397113,11.6613776 22.5793296,11.5139705 22.29835,11.5139705 C22.0173704,11.5139705 21.7569887,11.6613776 21.6124,11.9023 L15.4394,22.1905 L11.486,15.6015 C11.3414227,15.3605303 11.0810142,15.2130872 10.8,15.2130872 C10.5189858,15.2130872 10.2585773,15.3605303 10.114,15.6015 L4.253,25.37 C2.52166647,22.8476893 1.59656805,19.859339 1.59999049,16.8 C1.59999049,8.4187 8.4187,1.6 16.8,1.6 Z M5.3021,26.7312 L10.8,17.568 L14.5065,23.7454 L10.4022,30.5854 C8.44949568,29.6745269 6.71145173,28.3610686 5.3021,26.7312 L5.3021,26.7312 Z M16.8,32.0000057 C15.1349231,32.0014487 13.4810143,31.7281792 11.9049,31.1912 L16.1266,24.1551 L16.1294,24.1504 L22.2983,13.8688 L29.2675,25.4843 C26.4280406,29.5652434 21.7715819,31.9987775 16.8,32.0000057 L16.8,32.0000057 Z" id="Shape"></path>
                <path d="M13.7237,13.88 C15.822382,13.88 17.5237,12.178682 17.5237,10.08 C17.5237,7.98131795 15.822382,6.28 13.7237,6.28 C11.625018,6.28 9.9237,7.98131795 9.9237,10.08 C9.92606969,12.1776997 11.6260003,13.8776303 13.7237,13.88 L13.7237,13.88 Z M13.7237,7.88 C14.9387264,7.88 15.9237,8.86497355 15.9237,10.08 C15.9237,11.2950264 14.9387264,12.28 13.7237,12.28 C12.5086736,12.28 11.5237,11.2950264 11.5237,10.08 C11.5250777,8.86554468 12.5092447,7.88137772 13.7237,7.88 L13.7237,7.88 Z" id="Shape"></path>
            </g>
        </g>
    </g>
</svg>