<svg id="Layer_1" data-name="Layer 1" xmlns="http://www.w3.org/2000/svg" viewBox="0 0 300 300"><defs><style>.cls-1{fill:#b7b1b7;}</style></defs><title>Color matcher icons</title><path class="cls-1" d="M183.63,93.38l23,23L156.8,166.19h-46ZM300,51.17V248.83a5.83,5.83,0,0,1-5.82,5.83H5.82A5.83,5.83,0,0,1,0,248.83V51.14a5.8,5.8,0,0,1,5.79-5.8H294.18A5.83,5.83,0,0,1,300,51.17ZM226.43,74.83A23.24,23.24,0,0,0,193,74.19l-9.35,9.35-.6-.6a3.49,3.49,0,0,0-5.05.14,3.61,3.61,0,0,0,.27,4.92l.46.46L101,166.19l-7,7L78.76,188.41c-8.29,8.29-15.2,35.48-8.93,41.76s33.47-.64,41.76-8.93l48.09-48.1,7-6.95,44.9-44.9.6.6a3.48,3.48,0,0,0,5.05-.14,3.61,3.61,0,0,0-.27-4.92l-.46-.46,8.95-9C234.3,98.53,235,84.05,226.43,74.83Z"/></svg>