<svg id="Layer_1" data-name="Layer 1" xmlns="http://www.w3.org/2000/svg" viewBox="0 0 300 300"><defs><style>.cls-1{fill:#3f3f3f;}</style></defs><title>Color matcher icons</title><path class="cls-1" d="M276.2,42.67a80.65,80.65,0,0,0-60-26.12,75.44,75.44,0,0,0-47.13,16.27A96.43,96.43,0,0,0,150,52.72a96.43,96.43,0,0,0-19.06-19.9A75.44,75.44,0,0,0,83.81,16.55a80.65,80.65,0,0,0-60,26.12C8.45,59.31,0,82.06,0,106.71c0,25.37,9.46,48.59,29.75,73.09C47.91,201.71,74,224,104.24,249.71c10.32,8.79,22,18.76,34.16,29.38a17.61,17.61,0,0,0,23.19,0c12.15-10.62,23.85-20.6,34.18-29.4,30.22-25.75,56.32-48,74.48-69.9,20.3-24.5,29.75-47.72,29.75-73.1C300,82.06,291.55,59.31,276.2,42.67Z"/></svg>