<svg id="Layer_1" data-name="Layer 1" xmlns="http://www.w3.org/2000/svg" viewBox="0 0 300 300"><defs><style>.cls-1{fill:#b7b1b7;}</style></defs><title>Color matcher icons</title><path class="cls-1" d="M296,102.94l-142.3,46.67a11.89,11.89,0,0,1-7.32,0L4,102.94A5.87,5.87,0,0,1,4,91.79l142.3-46.66a11.74,11.74,0,0,1,7.32,0L296,91.79A5.87,5.87,0,0,1,296,102.94Zm0,41.48-48.19-15.8-91.19,29.91a21.14,21.14,0,0,1-13.16,0L52.23,128.62,4,144.42a5.87,5.87,0,0,0,0,11.16l142.3,46.66a11.74,11.74,0,0,0,7.32,0L296,155.58A5.87,5.87,0,0,0,296,144.42Zm0,52.64-48.19-15.8-91.19,29.9a21.14,21.14,0,0,1-13.16,0l-91.19-29.9L4,197.06a5.87,5.87,0,0,0,0,11.15l142.3,46.66a11.74,11.74,0,0,0,7.32,0L296,208.21A5.87,5.87,0,0,0,296,197.06Z"/></svg>