<svg id="Layer_1" data-name="Layer 1" xmlns="http://www.w3.org/2000/svg" viewBox="0 0 300 300"><defs><style>.cls-1{fill:#b7b1b7;}</style></defs><title>Color matcher icons</title><path class="cls-1" d="M221.18,200.35v100H153.7v-100Zm-142.45,0v100H146.2v-100Zm215,0H228.68v100h65.07A6.27,6.27,0,0,0,300,294.1V206.6A6.27,6.27,0,0,0,293.75,200.35Zm-287.5,0A6.27,6.27,0,0,0,0,206.6v87.5a6.27,6.27,0,0,0,6.25,6.25h65v-100Zm38.87,50a9.51,9.51,0,1,1-9.51-9.51A9.51,9.51,0,0,1,45.12,250.35ZM11.65,5.9v187H30.31L101.08,70.29V5.9A6.25,6.25,0,0,0,94.83-.35H17.9A6.25,6.25,0,0,0,11.65,5.9Zm43,187L186,117l32.2-55.78A6.26,6.26,0,0,0,216,52.69l-66.52-38.5a6.26,6.26,0,0,0-8.55,2.28L39,192.85Zm193.85,0L292,167.75a6.26,6.26,0,0,0,2.29-8.54L255.81,92.6a6.25,6.25,0,0,0-8.54-2.29L69.66,192.85Z"/></svg>