<svg id="Layer_1" data-name="Layer 1" xmlns="http://www.w3.org/2000/svg" viewBox="0 0 300 300"><defs><style>.cls-1{fill:#3f3f3f;}</style></defs><title>Color matcher icons</title><path class="cls-1" d="M236,104.28l45.65-26.36A149.28,149.28,0,0,1,300,146.61H247.29A96.87,96.87,0,0,0,236,104.28Zm11.32,49.11A96.87,96.87,0,0,1,236,195.72l45.65,26.36A149.28,149.28,0,0,0,300,153.39ZM104.28,236,77.92,281.62A149.28,149.28,0,0,0,146.61,300V247.29A96.87,96.87,0,0,1,104.28,236ZM195.72,64l26.36-45.65A149.28,149.28,0,0,0,153.39,0V52.71A96.87,96.87,0,0,1,195.72,64ZM67.43,201.59,21.77,228a150.72,150.72,0,0,0,50.28,50.28l26.36-45.66A97.71,97.71,0,0,1,67.43,201.59Zm86,45.7V300a149.28,149.28,0,0,0,68.69-18.38L195.72,236A96.87,96.87,0,0,1,153.39,247.29Zm48.2-14.72L228,278.23A150.72,150.72,0,0,0,278.23,228l-45.66-26.36A97.71,97.71,0,0,1,201.59,232.57Zm31-134.16,45.66-26.36A150.72,150.72,0,0,0,228,21.77L201.59,67.43A97.71,97.71,0,0,1,232.57,98.41Zm-179.86,55H0a149.28,149.28,0,0,0,18.38,68.69L64,195.72A96.87,96.87,0,0,1,52.71,153.39Zm45.7-86L72.05,21.77A150.72,150.72,0,0,0,21.77,72.05L67.43,98.41A97.71,97.71,0,0,1,98.41,67.43Zm48.2-14.72V0A149.28,149.28,0,0,0,77.92,18.38L104.28,64A96.87,96.87,0,0,1,146.61,52.71ZM64,104.28,18.38,77.92A149.28,149.28,0,0,0,0,146.61H52.71A96.87,96.87,0,0,1,64,104.28Zm90.71-8.07a5.65,5.65,0,0,0-9.48,0c-10.66,16.45-35.63,56.84-35.63,74.37a40.37,40.37,0,0,0,80.74,0C190.37,153.05,165.4,112.66,154.74,96.21ZM150,200.44a3.39,3.39,0,1,1,0-6.78,23.11,23.11,0,0,0,23.07-23.08,3.39,3.39,0,1,1,6.78,0A29.89,29.89,0,0,1,150,200.44Z"/></svg>